#!OML:ASF E:\Style4\Style4.ASF
:FULLY-SPECIFIED
:DEGREES
2265
root 0.0652823 17.6034 -1.31405 -1.78187 0.112564 2.86494
lowerback 4.27315 2.16949 -0.494791
upperback 0.267775 2.85575 -0.535473
thorax -2.11473 1.42697 -0.444426
lowerneck -3.08205 -4.96507 -5.98259
upperneck 11.7746 -6.63756 3.29582
head 4.34026 -3.35971 1.65892
rclavicle -5.28954e-015 3.77691e-015
rhumerus 50.8141 6.47767 -62.4671
rradius 55.0517
rwrist -40.4315
rhand -27.014 16.5547
rfingers 7.12502
rthumb -0.433591 -13.4246
lclavicle -5.28954e-015 3.77691e-015
lhumerus 50.751 -14.5444 60.3812
lradius 67.6866
lwrist 54.5337
lhand -21.5685 33.4836
lfingers 7.12502
lthumb 4.82543 63.4087
rfemur -12.9991 2.26515 15.2091
rtibia 36.6732
rfoot -20.623 -12.1031
rtoes -11.9612
lfemur -11.3761 -2.21903 -22.0855
ltibia 33.6948
lfoot -20.4888 7.95037
ltoes -15.283
2266
root 0.0639953 17.6056 -1.31488 -1.7418 0.120191 2.86094
lowerback 4.24299 2.17475 -0.501253
upperback 0.251368 2.86287 -0.524749
thorax -2.11555 1.43063 -0.429418
lowerneck -3.02306 -4.96903 -6.0494
upperneck 11.7625 -6.64752 3.35057
head 4.33128 -3.36528 1.68741
rclavicle -3.22342e-014 1.59028e-015
rhumerus 50.7909 6.44369 -62.4632
rradius 55.0786
rwrist -40.458
rhand -27.0154 16.5945
rfingers 7.12502
rthumb -0.434946 -13.3848
lclavicle -3.22342e-014 1.59028e-015
lhumerus 50.8715 -14.583 60.2173
lradius 67.6467
lwrist 54.661
lhand -21.7211 33.4094
lfingers 7.12502
lthumb 4.67804 63.3377
rfemur -13.0429 2.26781 15.219
rtibia 36.6608
rfoot -20.6129 -12.1026
rtoes -11.8443
lfemur -11.4131 -2.24817 -22.0717
ltibia 33.6574
lfoot -20.4563 7.94131
ltoes -15.0201
2267
root 0.0635656 17.6074 -1.31452 -1.72456 0.119224 2.88986
lowerback 4.25395 2.17794 -0.51767
upperback 0.230102 2.86564 -0.545178
thorax -2.14329 1.43207 -0.442388
lowerneck -3.02091 -4.9756 -6.0545
upperneck 11.8202 -6.6582 3.35701
head 4.34943 -3.37064 1.68906
rclavicle 6.31716e-014 -1.19271e-014
rhumerus 50.7535 6.43189 -62.4228
rradius 55.1203
rwrist -40.5067
rhand -27.1582 16.628
rfingers 7.12502
rthumb -0.57286 -13.351
lclavicle 6.31716e-014 -1.19271e-014
lhumerus 50.964 -14.5779 60.2823
lradius 67.4998
lwrist 54.5652
lhand -21.6749 33.4084
lfingers 7.12502
lthumb 4.72267 63.3358
rfemur -13.0539 2.29401 15.1856
rtibia 36.6415
rfoot -20.6079 -12.0872
rtoes -11.876
lfemur -11.4013 -2.24606 -22.1025
ltibia 33.6102
lfoot -20.4813 7.93178
ltoes -14.8187
2268
root 0.0637973 17.6088 -1.31151 -1.72903 0.109977 2.86542
lowerback 4.23158 2.16512 -0.487027
upperback 0.243488 2.85042 -0.54119
thorax -2.11576 1.42424 -0.453158
lowerneck -3.03585 -4.96498 -6.03858
upperneck 11.8274 -6.64292 3.34489
head 4.35245 -3.36293 1.68321
rclavicle -1.85693e-014 7.35503e-015
rhumerus 50.7766 6.44578 -62.4307
rradius 55.1703
rwrist -40.4217
rhand -27.3764 16.5669
rfingers 7.12502
rthumb -0.783619 -13.4114
lclavicle -1.85693e-014 7.35503e-015
lhumerus 50.958 -14.5075 60.328
lradius 67.5053
lwrist 54.4844
lhand -21.5833 33.5149
lfingers 7.12502
lthumb 4.81109 63.4403
rfemur -13.0191 2.30855 15.2123
rtibia 36.6129
rfoot -20.5825 -12.1079
rtoes -11.9337
lfemur -11.3505 -2.23965 -22.079
ltibia 33.5537
lfoot -20.4557 7.85232
ltoes -14.495
